# xmcd
#
# Track frame offsets:
#	150
#	8005
#	22307
#	32112
#	49750
#	58577
#	64985
#	77370
#	83375
#	88630
#	98397
#	101155
#	109790
#	118350
#	124935
#	131520
#	142380
#	145962
#	160067
#	164987
#	168967
#	175455
#	185017
#	185382
#
# Disc length: 2475 seconds
#
# Revision: 1
# Processed by: cddbd v1.4PL0 Copyright (c) Steve Scherf et al.
# Submitted via: audiograbber 1.80
#
DISCID=5509a918
DTITLE=Nuschelkopp - Nuschelkopp
DYEAR=1900
DGENRE=
TTITLE0=Intro: Nuschelkopp und JUK
TTITLE1=Der-Ä-Song
TTITLE2=Oben-ohne-Bar
TTITLE3=Eine Schmu Pizza, bitte!
TTITLE4=Arschlecken klingelingeling
TTITLE5=Poesiealbum
TTITLE6=Gisbert Geier
TTITLE7=Wechdienst
TTITLE8=Nuschelkopp pupst
TTITLE9=Infoline der chemischen Industrie
TTITLE10=Im Stadion
TTITLE11=Nuschelsepp
TTITLE12=Schiffchen basteln
TTITLE13=Ilsel der Ese
TTITLE14=Hermine Plaschke
TTITLE15=Ihr Drecksäue kommet!
TTITLE16=Schiefe Zähne
TTITLE17=Telefonauskunft
TTITLE18=Im Restaurant
TTITLE19=Hustenanfall
TTITLE20=Urlaub
TTITLE21=Morgen kommt de Nuschelkopp
TTITLE22=Arschlecken
TTITLE23=Ilsel
EXTD=Verlag: Mundraub
EXTT0=
EXTT1=
EXTT2=
EXTT3=
EXTT4=
EXTT5=
EXTT6=
EXTT7=
EXTT8=
EXTT9=
EXTT10=
EXTT11=
EXTT12=
EXTT13=
EXTT14=
EXTT15=
EXTT16=
EXTT17=
EXTT18=
EXTT19=
EXTT20=
EXTT21=
EXTT22=Bonus1
EXTT23=Bonus2
PLAYORDER=
